<?xml version="1.0" encoding="utf-8"?>
<!-- Generator: Adobe Illustrator 19.0.0, SVG Export Plug-In . SVG Version: 6.00 Build 0)  -->
<svg version="1.1" id="outline" xmlns="http://www.w3.org/2000/svg" xmlns:xlink="http://www.w3.org/1999/xlink" x="0px" y="0px"
	 viewBox="-49 141 512 512" style="enable-background:new -49 141 512 512;" xml:space="preserve">
<style type="text/css">
	.st0{fill:#FF9F6B;}
</style>
<path class="st0" d="M390.6,538.7c-24.2,0-43.9-19.6-43.9-43.8c0-24.2,19.6-43.9,43.8-43.9s43.9,19.6,43.9,43.8c0,0,0,0,0,0
	C434.4,519.1,414.8,538.7,390.6,538.7z M390.6,467c-15.4,0-27.9,12.4-27.9,27.8c0,15.4,12.4,27.9,27.8,27.9
	c15.4,0,27.9-12.4,27.9-27.8c0,0,0,0,0,0C418.4,479.5,406,467,390.6,467z"/>
<path class="st0" d="M159.4,538.7c-24.2,0-43.9-19.6-43.9-43.8c0-24.2,19.6-43.9,43.8-43.9c24.2,0,43.9,19.6,43.9,43.8c0,0,0,0,0,0
	C203.2,519.1,183.6,538.7,159.4,538.7z M159.4,467c-15.4,0-27.9,12.4-27.9,27.8c0,15.4,12.4,27.9,27.8,27.9s27.9-12.4,27.9-27.8
	c0,0,0,0,0,0C187.3,479.5,174.8,467.1,159.4,467z"/>
<path class="st0" d="M448.3,502.9h-21.9c-4.4,0-8-3.6-8-8c0-4.4,3.6-8,8-8H446v-42.4c0-5.7-1.5-11.4-4.3-16.4l-43.3-77.6
	c-0.8-1.3-2.2-2.2-3.7-2.2h-59v138.7h19.1c4.4,0,8,3.6,8,8c0,4.4-3.6,8-8,8h-27.1c-4.4,0-8-3.6-8-8V340.2c0-4.4,3.6-8,8-8h67
	c7.3,0,14.1,4,17.7,10.4l43.3,77.7c4.1,7.4,6.3,15.7,6.3,24.2v44.7C462,496.7,455.9,502.9,448.3,502.9L448.3,502.9z"/>
<path class="st0" d="M123.6,502.9H46.9c-4.4,0-8-3.6-8-8v-61.5c0-4.4,3.6-8,8-8s8,3.6,8,8l0,0v53.5h68.7c4.4,0,8,3.6,8,8
	C131.6,499.3,128,502.9,123.6,502.9z"/>
<path class="st0" d="M46.9,405c-4.4,0-8-3.6-8-8v-53.7c0-4.4,3.6-8,8-8s8,3.6,8,8V397C54.9,401.4,51.3,405,46.9,405z"/>
<path class="st0" d="M327.7,502.9H195.3c-4.4,0-8-3.6-8-8c0-4.4,3.6-8,8-8h124.4V277.6H54.9v32.9c0,4.4-3.6,8-8,8s-8-3.6-8-8v-34.4
	c0-8,6.5-14.5,14.5-14.5h267.7c8,0,14.5,6.5,14.5,14.5v218.8C335.7,499.3,332.1,502.9,327.7,502.9z"/>
<path class="st0" d="M78.5,441.4H-23c-4.4,0-8-3.6-8-8s3.6-8,8-8H78.5c4.4,0,8,3.6,8,8S83,441.4,78.5,441.4z"/>
<path class="st0" d="M159.4,405H17.8c-4.4,0-8-3.6-8-8s3.6-8,8-8h141.7c4.4,0,8,3.6,8,8S163.9,405,159.4,405z"/>
<path class="st0" d="M13.4,362.7H-42c-4.4,0-8-3.6-8-8s3.6-8,8-8h55.3c4.4,0,8,3.6,8,8S17.8,362.7,13.4,362.7z"/>
<path class="st0" d="M102.1,318.5H4.4c-4.4,0-8-3.6-8-8c0-4.4,3.6-8,8-8h97.7c4.4,0,8,3.6,8,8C110.1,315,106.5,318.5,102.1,318.5z"
	/>
</svg>
