<?xml version="1.0" encoding="utf-8"?>
<!-- Generator: Adobe Illustrator 19.0.0, SVG Export Plug-In . SVG Version: 6.00 Build 0)  -->
<svg version="1.1" id="Capa_1" xmlns="http://www.w3.org/2000/svg" xmlns:xlink="http://www.w3.org/1999/xlink" x="0px" y="0px"
	 viewBox="-49 141 512 512" style="enable-background:new -49 141 512 512;" xml:space="preserve">
<style type="text/css">
	.st0{fill:#FF9F6B;}
</style>
<g>
	<path class="st0" d="M418.3,229.6c-7.3-9.6-18.3-15.9-30.4-17.2c-56.4-6.1-109.7-27.6-153.9-62.1c-15.9-12.4-38.1-12.4-54,0
		c-44.4,34.6-97.6,56.1-154,62.1c-12,1.3-23,7.5-30.3,17.1c-7.3,9.7-10.2,21.6-8.1,33.6L9.7,391.7c0.7,4.1,4.6,6.8,8.7,6.1
		c4.1-0.7,6.8-4.6,6.1-8.7L2.4,260.6c-1.3-7.8,0.5-15.6,5.3-22c4.8-6.4,11.9-10.4,19.9-11.2c59.2-6.4,115-28.9,161.6-65.2
		c10.5-8.2,25.1-8.1,35.6,0c46.5,36.2,102.3,58.8,161.5,65.2c8,0.9,15.1,4.9,20,11.3c4.8,6.3,6.7,14.1,5.3,21.9l-44.7,259.9
		c-3.8,22.1-17.1,41.2-36.6,52.3l-106.1,60.7c-10.7,6.1-23.9,6.1-34.5,0L83.7,572.8c-19.5-11.1-32.8-30.2-36.6-52.3l-16.6-96.6
		c-0.7-4.1-4.6-6.8-8.7-6.1c-4.1,0.7-6.8,4.6-6.1,8.7L32.3,523c4.6,26.5,20.6,49.4,44,62.8l106.1,60.7c7.6,4.4,16.2,6.5,24.7,6.5
		c8.5,0,17.1-2.2,24.7-6.5l106.1-60.7c23.4-13.4,39.4-36.3,44-62.8l44.7-259.9C428.5,251.2,425.6,239.3,418.3,229.6L418.3,229.6z"/>
	<path class="st0" d="M304.3,398.6c3.6,2.1,8.2,0.8,10.2-2.8c10.8-18.7,16.5-40.1,16.5-61.8c0-68.4-55.7-124.1-124.1-124.1
		S82.9,265.6,82.9,334c0,33.2,13.4,65.1,37,88.3c-0.7,2.3-1.1,4.8-1.1,7.4v126.7c0,13.7,11.2,24.9,24.9,24.9h126.7
		c13.7,0,24.9-11.2,24.9-24.9V429.8c0-13.2-10.4-24.1-23.5-24.8l-2.4-18.1c-2.4-18-16-32.3-33.2-35.9c5.1-6.4,8.1-14.4,8.1-23.2
		v-35.4c0-15.1-12.3-27.4-27.4-27.4h-19.7c-15.1,0-27.4,12.3-27.4,27.4v35.4c0,8.8,3.1,16.8,8.1,23.2c-17.2,3.7-30.9,17.9-33.2,35.9
		l-2.4,18.1c-5.1,0.3-9.7,2.1-13.6,5c-19.6-20.3-30.8-47.5-30.8-75.9C97.9,273.9,146.9,225,207,225S316.1,273.9,316.1,334
		c0,19.1-5,37.9-14.5,54.3C299.5,391.9,300.8,396.5,304.3,398.6L304.3,398.6z M184.7,327.7v-9.3h44.6v9.3c0,12.2-9.9,22.2-22.1,22.3
		h-0.3C194.6,349.9,184.7,339.9,184.7,327.7L184.7,327.7z M184.7,292.3c0-6.9,5.6-12.4,12.4-12.4h19.7c6.9,0,12.4,5.6,12.4,12.4
		v11.1h-44.6L184.7,292.3L184.7,292.3z M186.6,365h12.9v6.9c0,4.1,3.4,7.5,7.5,7.5s7.5-3.4,7.5-7.5V365h12.9
		c13.7,0,25.3,10.2,27.1,23.8l2.1,16.1h-99.2l2.1-16.1C161.3,375.2,172.9,365,186.6,365L186.6,365z M143.7,419.9h121.4c0,0,0,0,0,0
		c0,0,0,0,0,0h5.2c5.5,0,9.9,4.4,9.9,9.9v126.7c0,5.5-4.4,9.9-9.9,9.9H143.7c-5.5,0-9.9-4.4-9.9-9.9V429.8
		C133.8,424.3,138.2,419.9,143.7,419.9z"/>
	<path class="st0" d="M157.9,453.3c4.1,0,7.4,3.3,7.4,7.4v12.9v30.6c0,6.8,4.8,12.4,11.1,13.8l-6.1,11.2c-2.1,4-2.1,8.6,0.2,12.5
		c2.3,3.9,6.4,6.2,10.9,6.2h54.7c4.1,0,7.5-3.4,7.5-7.5c0-4.1-3.4-7.5-7.5-7.5h-50.7l7.9-14.5h34.6c11.4,0,21.8-6.7,26.5-17.2
		l5.6-12.7c2.2-4.9,1.8-10.6-1.2-15.2c-2.9-4.5-7.9-7.3-13.4-7.3h-65.1v-5.4c0-12.4-10.1-22.4-22.4-22.4c-4.1,0-7.5,3.4-7.5,7.5
		S153.8,453.3,157.9,453.3z M246.3,481.6c0.3,0.4,0.1,0.8,0.1,0.9l-5.6,12.7c-2.2,5-7.2,8.3-12.8,8.3h-47.6v-22.3h65.1
		C245.6,481.2,246,481.2,246.3,481.6z"/>
</g>
</svg>
