<?xml version="1.0" encoding="utf-8"?>
<!-- Generator: Adobe Illustrator 19.0.0, SVG Export Plug-In . SVG Version: 6.00 Build 0)  -->
<svg version="1.1" id="Layer_1" xmlns="http://www.w3.org/2000/svg" xmlns:xlink="http://www.w3.org/1999/xlink" x="0px" y="0px"
	 viewBox="-49 141 512 512" style="enable-background:new -49 141 512 512;" xml:space="preserve">
<style type="text/css">
	.st0{fill:#FF9F6B;}
</style>
<path class="st0" d="M-6.3,397c0-117.8,95.5-213.3,213.3-213.3c48,0,94.5,16.2,132.2,45.9h-32.5c-5.9,0.1-10.6,4.9-10.6,10.8
	c0.1,5.8,4.8,10.5,10.6,10.6H367c5.9,0,10.7-4.8,10.7-10.7v-60.3c-0.1-5.9-4.9-10.6-10.8-10.6c-5.8,0.1-10.5,4.8-10.6,10.6V216
	c-100-82.5-247.9-68.3-330.4,31.7C-51,340.9-44.4,477.4,41.1,562.9c4.2,4.1,11,4,15.1-0.2c4.1-4.1,4.1-10.8,0-14.9
	C16,507.9-6.5,453.6-6.3,397z"/>
<path class="st0" d="M113.8,589c-6.1-2.9-12-6.2-17.8-9.7c-5-3.1-11.6-1.5-14.7,3.5c-3.1,5-1.5,11.6,3.5,14.7l0,0
	c6.3,3.9,12.9,7.5,19.6,10.7c5.3,2.6,11.7,0.4,14.3-4.9S119.1,591.5,113.8,589L113.8,589z"/>
<path class="st0" d="M399,304c2.6,5.3,8.9,7.5,14.3,5s7.5-8.9,5-14.3l0,0c-3.2-6.6-6.8-13.2-10.7-19.6c-3.1-5-9.6-6.6-14.7-3.6
	c-5,3.1-6.6,9.6-3.6,14.7C392.9,291.9,396.1,297.9,399,304z"/>
<path class="st0" d="M232.3,608.8c-6.7,0.8-13.5,1.3-20.3,1.4c-5.9,0.2-10.5,5.2-10.3,11.1c0.2,5.7,4.8,10.2,10.5,10.3
	c0.1,0,0.2,0,0.3,0c7.4-0.2,14.9-0.7,22.3-1.6c5.9-0.7,10-6,9.3-11.8C243.5,612.3,238.2,608.1,232.3,608.8L232.3,608.8z"/>
<path class="st0" d="M171.6,607.4c-6.6-1.1-13.3-2.6-19.8-4.3c-5.7-1.5-11.5,1.9-13.1,7.6c-1.5,5.7,1.9,11.5,7.6,13.1
	c7.2,1.9,14.5,3.5,21.8,4.7c5.8,1,11.3-3,12.3-8.8C181.3,613.9,177.4,608.4,171.6,607.4L171.6,607.4z"/>
<path class="st0" d="M431.2,391.9c-5.9-0.1-10.8,4.5-10.9,10.4c-0.2,6.7-0.7,13.6-1.5,20.3c-0.7,5.8,3.5,11.2,9.3,11.9
	c0.4,0,0.9,0.1,1.3,0.1c5.4,0,9.9-4,10.6-9.4c0.9-7.4,1.4-14.8,1.6-22.3C441.7,396.9,437.1,392,431.2,391.9
	C431.2,391.9,431.2,391.9,431.2,391.9L431.2,391.9z"/>
<path class="st0" d="M398.5,513.9c-4.9-3.3-11.5-2-14.8,2.8c-3.8,5.6-7.9,11-12.2,16.2c-3.8,4.5-3.3,11.2,1.2,15
	c4.5,3.8,11.2,3.3,15-1.2c0.1-0.1,0.1-0.1,0.2-0.2c4.7-5.7,9.2-11.7,13.4-17.8C404.6,523.8,403.3,517.2,398.5,513.9
	C398.5,513.9,398.5,513.9,398.5,513.9L398.5,513.9z"/>
<path class="st0" d="M413.2,342c1.7,6.5,3.2,13.2,4.3,19.8c0.9,5.1,5.3,8.9,10.5,8.9c0.6,0,1.2,0,1.8-0.1c5.8-1,9.7-6.5,8.8-12.3
	c0,0,0,0,0,0c-1.2-7.3-2.8-14.7-4.7-21.8c-1.5-5.7-7.4-9.1-13.1-7.6C415,330.4,411.6,336.3,413.2,342L413.2,342z"/>
<path class="st0" d="M342.7,561.6c-5.2,4.3-10.7,8.4-16.2,12.2c-4.9,3.3-6.1,9.9-2.8,14.8s9.9,6.1,14.8,2.8
	c6.1-4.1,12.1-8.6,17.9-13.4c4.5-3.8,5.2-10.5,1.4-15S347.3,557.8,342.7,561.6z"/>
<path class="st0" d="M423.6,455.2c-5.6-1.8-11.6,1.3-13.4,6.9c-2,6.4-4.4,12.8-7.1,19c-2.4,5.4,0,11.7,5.3,14.1
	c5.4,2.4,11.7,0,14.1-5.3c0.1-0.1,0.1-0.2,0.2-0.4c2.9-6.8,5.6-13.9,7.8-20.9C432.3,463,429.2,457,423.6,455.2
	C423.6,455.2,423.6,455.2,423.6,455.2L423.6,455.2z"/>
<path class="st0" d="M290.9,593.2c-6.2,2.6-12.5,5-19,7.1c-5.6,1.8-8.7,7.8-6.9,13.4s7.8,8.7,13.4,6.9c7.1-2.3,14.2-4.9,20.9-7.8
	c5.4-2.3,7.9-8.6,5.6-14C302.6,593.4,296.4,590.9,290.9,593.2L290.9,593.2L290.9,593.2z"/>
<path class="st0" d="M116.8,375.2c0-17.5-11.5-31.5-29.3-35.7c-20.1-4.8-40.9,5-50,23.5c-2.7,5.3-0.6,11.7,4.7,14.3
	c5.3,2.7,11.7,0.6,14.3-4.7c0,0,0-0.1,0.1-0.1c4.7-9.7,15.6-14.9,26.1-12.3c3,0.7,12.9,3.9,12.9,14.9c0,11.1-12.8,19.7-26.5,28.8
	c-15.3,10.2-32.7,21.8-32.7,41c0,5.9,4.8,10.7,10.7,10.7h59.1c5.9-0.1,10.6-4.9,10.6-10.8c-0.1-5.8-4.8-10.5-10.6-10.6H63.9
	c4.5-4.2,10.8-8.5,17-12.6C97.7,410.5,116.8,397.7,116.8,375.2L116.8,375.2z"/>
<path class="st0" d="M217.7,410.3c0-5.9-4.8-10.7-10.7-10.7h-8.7V343c0-5.9-4.8-10.7-10.7-10.7c-3.2,0-6.3,1.5-8.3,4l-54,67.3
	c-3.7,4.6-2.9,11.3,1.7,15c1.9,1.5,4.2,2.3,6.7,2.3H177v30c-0.1,5.9,4.7,10.7,10.6,10.8s10.7-4.7,10.8-10.6c0-0.1,0-0.1,0-0.2v-30
	h8.7C212.9,421,217.7,416.2,217.7,410.3z M177,399.7h-21.1l21.1-26.3V399.7z"/>
<path class="st0" d="M272.3,326.5c-5.8-1.2-11.4,2.6-12.5,8.3c0,0,0,0,0,0l-24,120c-1.2,5.8,2.6,11.4,8.4,12.6
	c0.7,0.1,1.4,0.2,2.1,0.2c5.1,0,9.5-3.6,10.4-8.6l24-120C281.8,333.3,278,327.7,272.3,326.5C272.3,326.5,272.3,326.5,272.3,326.5z"
	/>
<path class="st0" d="M327,455.7c4.3,0,8.2-2.6,9.8-6.6l40-96c2.3-5.4-0.3-11.7-5.7-13.9c-1.3-0.5-2.7-0.8-4.1-0.8h-54
	c-5.9,0.1-10.6,4.9-10.6,10.8c0.1,5.8,4.8,10.5,10.6,10.6h38l-33.8,81.2c-2.3,5.4,0.3,11.7,5.8,14
	C324.2,455.4,325.6,455.7,327,455.7L327,455.7z"/>
</svg>
